<svg width="170" height="25" viewBox="0 0 170 25" fill="none" xmlns="http://www.w3.org/2000/svg">
<path d="M123.79 3.83887H107.894C105.943 3.83887 104.362 5.42036 104.362 7.37124V17.9684C104.362 19.9192 105.943 21.5007 107.894 21.5007H123.79C125.74 21.5007 127.322 19.9192 127.322 17.9684V7.37124C127.322 5.42036 125.74 3.83887 123.79 3.83887Z" stroke="white" stroke-linecap="round" stroke-linejoin="round"/>
<path d="M112.857 16.7672V9.34922C112.853 9.22398 112.884 9.10011 112.945 8.99094C113.007 8.88177 113.097 8.79144 113.206 8.72967C113.315 8.6679 113.439 8.63703 113.564 8.64038C113.689 8.64374 113.811 8.68119 113.917 8.74871L120.275 12.4577C120.381 12.52 120.469 12.6091 120.53 12.7159C120.592 12.8228 120.624 12.9439 120.624 13.067C120.624 13.1902 120.592 13.3112 120.53 13.4181C120.469 13.525 120.381 13.614 120.275 13.6764L113.917 17.3854C113.809 17.4476 113.686 17.4803 113.562 17.48C113.437 17.4798 113.315 17.4466 113.207 17.3838C113.1 17.321 113.011 17.231 112.949 17.1227C112.888 17.0144 112.856 16.8917 112.857 16.7672V16.7672Z" stroke="white" stroke-linecap="round" stroke-linejoin="round"/>
<path d="M19.0933 10.5609H14.7108C14.5914 10.5609 14.4733 10.5851 14.3632 10.6323C14.2531 10.6795 14.1534 10.7486 14.0698 10.8356C13.9862 10.9225 13.9205 11.0257 13.8764 11.1389C13.8323 11.2522 13.8108 11.3732 13.8132 11.495V14.028C13.8132 14.271 13.9078 14.5041 14.0761 14.6759C14.2444 14.8477 14.4727 14.9442 14.7108 14.9442H16.9813C16.994 15.6386 16.8632 16.3279 16.5973 16.9672C16.3314 17.6064 15.9364 18.1813 15.4382 18.6542C14.9399 19.1272 14.3496 19.4876 13.7057 19.712C13.0617 19.9363 12.3787 20.0196 11.7011 19.9564C7.7586 19.9564 5.85774 16.5431 5.85774 12.6627C5.85774 8.7824 7.8994 5.36913 11.7011 5.36913C13.3795 5.31229 15.0241 5.85911 16.3477 6.91408C16.4534 6.98475 16.5732 7.03081 16.6983 7.04901C16.8235 7.06721 16.951 7.05709 17.072 7.01938C17.1929 6.98168 17.3042 6.91729 17.398 6.8308C17.4918 6.7443 17.5659 6.63781 17.6149 6.51886L18.7237 3.93197C18.8149 3.7413 18.8385 3.52423 18.7903 3.31782C18.7422 3.11141 18.6253 2.92846 18.4597 2.8002C16.4414 1.56836 14.1224 0.945485 11.7715 1.00374C5.36493 0.985778 1 6.06975 1 12.6627C1 19.2557 5.38253 24.3397 11.7011 24.3397C18.0197 24.3397 21.839 19.7408 21.839 13.561C21.839 11.5849 21.0646 10.5609 19.0933 10.5609Z" stroke="white" stroke-linecap="round" stroke-linejoin="round"/>
<path d="M57.8395 16.8926C56.5797 17.88 55.1337 18.6044 53.5876 19.0227C53.4173 19.0844 53.2701 19.1969 53.1662 19.345C53.0622 19.493 53.0064 19.6694 53.0064 19.8502C53.0064 20.0309 53.0622 20.2073 53.1662 20.3554C53.2701 20.5034 53.4173 20.6159 53.5876 20.6776C65.7965 25.6774 73.5594 17.9488 72.3773 9.37529L74.3534 5.29097H72.0598C69.2016 1.78761 61.6151 1.96366 62.8678 9.42811C62.8678 9.42811 58.8099 10.1499 53.6229 5.06211C53.5029 4.9439 53.3515 4.86249 53.1865 4.8275C53.0216 4.79252 52.8501 4.80543 52.6923 4.86471C52.5345 4.92399 52.397 5.02715 52.2962 5.16198C52.1953 5.2968 52.1353 5.45765 52.1232 5.62546C51.5748 7.8751 51.8492 10.2462 52.8972 12.3118C53.9452 14.3775 55.6979 16.0019 57.8395 16.8926V16.8926Z" stroke="white" stroke-linecap="round" stroke-linejoin="round"/>
<path d="M164.883 7.2603C164.883 5.46247 165.755 5.46247 166.628 5.46247H167.674C167.849 5.46488 168.022 5.43119 168.184 5.36338C168.346 5.29557 168.493 5.19502 168.617 5.06766C168.74 4.9403 168.838 4.78871 168.904 4.62184C168.97 4.45498 169.002 4.27621 169 4.09611V2.40615C169 2.2252 168.965 2.04604 168.897 1.87908C168.83 1.71213 168.73 1.5607 168.605 1.43358C168.48 1.30647 168.332 1.2062 168.169 1.1386C168.007 1.071 167.832 1.03742 167.657 1.0398L165.18 1.00384C164.458 0.97509 163.74 1.10798 163.073 1.39334C162.407 1.67869 161.808 2.10972 161.319 2.65667C160.83 3.20363 160.461 3.85347 160.24 4.56137C160.018 5.26926 159.948 6.01834 160.034 6.75691V9.36376H158.656C158.304 9.36376 157.967 9.50772 157.718 9.76396C157.47 10.0202 157.33 10.3677 157.33 10.7301V12.4201C157.33 12.7825 157.47 13.13 157.718 13.3862C157.967 13.6425 158.304 13.7864 158.656 13.7864H160.034V23.4408C160.034 23.6792 160.126 23.9078 160.289 24.0764C160.453 24.245 160.675 24.3397 160.906 24.3397H164.063C164.285 24.3259 164.494 24.2252 164.647 24.0581C164.799 23.891 164.884 23.6701 164.883 23.4408V13.7864H166.418C166.77 13.7864 167.107 13.6425 167.356 13.3862C167.604 13.13 167.744 12.7825 167.744 12.4201V10.7301C167.744 10.3677 167.604 10.0202 167.356 9.76396C167.107 9.50772 166.77 9.36376 166.418 9.36376H164.883V7.2603Z" stroke="white" stroke-linecap="round" stroke-linejoin="round"/>
</svg>
