<svg width="71" height="59" viewBox="0 0 71 59" fill="none" xmlns="http://www.w3.org/2000/svg">
<path d="M8.69629 13.3457V17.0688H6.86523V13.3457H8.69629ZM8.47656 33.2798V36.5391H6.65771V33.2798H8.47656ZM10.918 29.4224C10.918 28.9341 10.8081 28.4946 10.5884 28.104C10.3687 27.7134 10.0065 27.3553 9.50195 27.0298C8.9974 26.7043 8.32194 26.4032 7.47559 26.1265C6.4502 25.8091 5.56315 25.4225 4.81445 24.9668C4.07389 24.5111 3.50016 23.9455 3.09326 23.27C2.6945 22.5946 2.49512 21.7767 2.49512 20.8164C2.49512 19.8154 2.71077 18.9528 3.14209 18.2285C3.5734 17.5042 4.18376 16.9468 4.97314 16.5562C5.76253 16.1655 6.69027 15.9702 7.75635 15.9702C8.58643 15.9702 9.32699 16.0964 9.97803 16.3486C10.6291 16.5928 11.1784 16.959 11.626 17.4473C12.0817 17.9355 12.4276 18.5337 12.6636 19.2417C12.9077 19.9497 13.0298 20.7676 13.0298 21.6953H10.7837C10.7837 21.1501 10.7186 20.6496 10.5884 20.1938C10.4582 19.7381 10.2629 19.3434 10.0024 19.0098C9.74202 18.668 9.42464 18.4076 9.05029 18.2285C8.67594 18.0413 8.24463 17.9478 7.75635 17.9478C7.07275 17.9478 6.50716 18.0658 6.05957 18.3018C5.62012 18.5378 5.2946 18.8714 5.08301 19.3027C4.87142 19.7259 4.76562 20.2183 4.76562 20.7798C4.76562 21.3006 4.87142 21.7563 5.08301 22.147C5.2946 22.5376 5.65267 22.8916 6.15723 23.209C6.66992 23.5182 7.37386 23.8234 8.26904 24.1245C9.31885 24.4582 10.21 24.8529 10.9424 25.3086C11.6748 25.7562 12.2323 26.3096 12.6147 26.9688C12.9972 27.6198 13.1885 28.4295 13.1885 29.3979C13.1885 30.4478 12.9525 31.3348 12.4805 32.0591C12.0085 32.7752 11.3452 33.3205 10.4907 33.6948C9.63623 34.0692 8.63525 34.2563 7.48779 34.2563C6.79606 34.2563 6.11247 34.1628 5.43701 33.9756C4.76156 33.7884 4.1512 33.4832 3.60596 33.0601C3.06071 32.6287 2.62533 32.0632 2.2998 31.3633C1.97428 30.6553 1.81152 29.7886 1.81152 28.7632H4.08203C4.08203 29.4549 4.17969 30.0286 4.375 30.4844C4.57845 30.932 4.84701 31.29 5.18066 31.5586C5.51432 31.819 5.88053 32.0062 6.2793 32.1201C6.6862 32.2259 7.08903 32.2788 7.48779 32.2788C8.22021 32.2788 8.8387 32.1649 9.34326 31.937C9.85596 31.701 10.2466 31.3674 10.5151 30.936C10.7837 30.5047 10.918 30.0002 10.918 29.4224Z" fill="url(#paint0_linear_29_224)"/>
<path d="M25.144 25.2021H25.3394V27.1187H25.144C23.9478 27.1187 22.9468 27.314 22.1411 27.7046C21.3354 28.0871 20.6966 28.6038 20.2246 29.2549C19.7526 29.8978 19.4108 30.6221 19.1992 31.4277C18.9958 32.2334 18.894 33.0513 18.894 33.8813V36.4937C18.894 37.283 18.9876 37.9829 19.1748 38.5933C19.362 39.1955 19.6183 39.7041 19.9438 40.1191C20.2694 40.5342 20.6356 40.8475 21.0425 41.0591C21.4575 41.2707 21.8888 41.3765 22.3364 41.3765C22.8573 41.3765 23.3211 41.2788 23.728 41.0835C24.1349 40.88 24.4767 40.5993 24.7534 40.2412C25.0382 39.875 25.2539 39.4437 25.4004 38.9473C25.5469 38.4508 25.6201 37.9056 25.6201 37.3115C25.6201 36.7826 25.555 36.2739 25.4248 35.7856C25.2946 35.2892 25.0952 34.8498 24.8267 34.4673C24.5581 34.0767 24.2204 33.7715 23.8135 33.5518C23.4147 33.3239 22.9386 33.21 22.3853 33.21C21.7586 33.21 21.1727 33.3646 20.6274 33.6738C20.0903 33.9749 19.6468 34.3737 19.2969 34.8701C18.9551 35.3584 18.7598 35.8914 18.7109 36.4692L17.5146 36.457C17.6286 35.5456 17.8402 34.7684 18.1494 34.1255C18.4668 33.4744 18.8574 32.9455 19.3213 32.5386C19.7933 32.1235 20.3182 31.8224 20.896 31.6353C21.4819 31.4399 22.1004 31.3423 22.7515 31.3423C23.6385 31.3423 24.4035 31.5091 25.0464 31.8428C25.6893 32.1764 26.2183 32.624 26.6333 33.1855C27.0483 33.7389 27.3535 34.3656 27.5488 35.0654C27.7523 35.7572 27.854 36.4692 27.854 37.2017C27.854 38.0399 27.736 38.8252 27.5 39.5576C27.264 40.29 26.91 40.9329 26.438 41.4863C25.9741 42.0397 25.4004 42.471 24.7168 42.7803C24.0332 43.0895 23.2397 43.2441 22.3364 43.2441C21.3761 43.2441 20.5379 43.0488 19.8218 42.6582C19.1056 42.2594 18.5116 41.7305 18.0396 41.0713C17.5675 40.4121 17.2135 39.6797 16.9775 38.874C16.7415 38.0684 16.6235 37.2505 16.6235 36.4204V35.3584C16.6235 34.1051 16.7497 32.8763 17.002 31.6719C17.2542 30.4674 17.6896 29.377 18.3081 28.4004C18.9347 27.4238 19.8014 26.6466 20.9082 26.0688C22.015 25.491 23.4269 25.2021 25.144 25.2021ZM42.6968 32.6973V35.4072C42.6968 36.8639 42.5666 38.0928 42.3062 39.0938C42.0457 40.0947 41.6714 40.9004 41.1831 41.5107C40.6948 42.1211 40.1048 42.5646 39.4131 42.8413C38.7295 43.1099 37.9564 43.2441 37.0938 43.2441C36.4102 43.2441 35.7795 43.1587 35.2017 42.9878C34.6239 42.8169 34.103 42.5443 33.6392 42.1699C33.1834 41.7874 32.7928 41.291 32.4673 40.6807C32.1418 40.0703 31.8936 39.3298 31.7227 38.459C31.5518 37.5882 31.4663 36.571 31.4663 35.4072V32.6973C31.4663 31.2406 31.5965 30.0199 31.8569 29.0352C32.1255 28.0505 32.5039 27.2611 32.9922 26.667C33.4805 26.0648 34.0664 25.6335 34.75 25.373C35.4417 25.1126 36.2148 24.9824 37.0693 24.9824C37.7611 24.9824 38.3958 25.0679 38.9736 25.2388C39.5596 25.4015 40.0804 25.666 40.5361 26.0322C40.9919 26.3903 41.3784 26.8704 41.6958 27.4727C42.0213 28.0667 42.2695 28.7951 42.4404 29.6577C42.6113 30.5203 42.6968 31.5335 42.6968 32.6973ZM40.4263 35.7734V32.3188C40.4263 31.5213 40.3774 30.8215 40.2798 30.2192C40.1903 29.6089 40.056 29.0881 39.877 28.6567C39.6979 28.2254 39.4701 27.8755 39.1934 27.6069C38.9248 27.3384 38.6115 27.1431 38.2534 27.021C37.9035 26.8908 37.5088 26.8257 37.0693 26.8257C36.5322 26.8257 36.0562 26.9274 35.6411 27.1309C35.2261 27.3262 34.8761 27.6395 34.5913 28.0708C34.3146 28.5021 34.103 29.0677 33.9565 29.7676C33.8101 30.4674 33.7368 31.3179 33.7368 32.3188V35.7734C33.7368 36.571 33.7816 37.2749 33.8711 37.8853C33.9688 38.4956 34.1112 39.0246 34.2983 39.4722C34.4855 39.9116 34.7134 40.2738 34.9819 40.5586C35.2505 40.8434 35.5597 41.055 35.9097 41.1934C36.2677 41.3236 36.6624 41.3887 37.0938 41.3887C37.6471 41.3887 38.1313 41.2829 38.5464 41.0713C38.9614 40.8597 39.3073 40.5301 39.584 40.0825C39.8688 39.6268 40.0804 39.0449 40.2188 38.3369C40.3571 37.6208 40.4263 36.7663 40.4263 35.7734ZM46.8828 41.8037C46.8828 41.4212 47.0008 41.0998 47.2368 40.8394C47.481 40.5708 47.8309 40.4365 48.2866 40.4365C48.7424 40.4365 49.0882 40.5708 49.3242 40.8394C49.5684 41.0998 49.6904 41.4212 49.6904 41.8037C49.6904 42.1781 49.5684 42.4954 49.3242 42.7559C49.0882 43.0163 48.7424 43.1465 48.2866 43.1465C47.8309 43.1465 47.481 43.0163 47.2368 42.7559C47.0008 42.4954 46.8828 42.1781 46.8828 41.8037ZM60.2974 36.8184V38.4443C60.2974 39.3184 60.2192 40.0557 60.063 40.6562C59.9067 41.2568 59.6821 41.7402 59.3892 42.1064C59.0962 42.4727 58.7422 42.7388 58.3271 42.9048C57.917 43.0659 57.4531 43.1465 56.9355 43.1465C56.5254 43.1465 56.147 43.0952 55.8003 42.9927C55.4536 42.8901 55.1411 42.7266 54.8628 42.502C54.5894 42.2725 54.355 41.9746 54.1597 41.6084C53.9644 41.2422 53.8154 40.7979 53.7129 40.2754C53.6104 39.7529 53.5591 39.1426 53.5591 38.4443V36.8184C53.5591 35.9443 53.6372 35.2119 53.7935 34.6211C53.9546 34.0303 54.1816 33.5566 54.4746 33.2002C54.7676 32.8389 55.1191 32.5801 55.5293 32.4238C55.9443 32.2676 56.4082 32.1895 56.9209 32.1895C57.3359 32.1895 57.7168 32.2407 58.0635 32.3433C58.415 32.4409 58.7275 32.5996 59.001 32.8193C59.2744 33.0342 59.5063 33.3223 59.6968 33.6836C59.8921 34.04 60.041 34.4771 60.1436 34.9946C60.2461 35.5122 60.2974 36.1201 60.2974 36.8184ZM58.9351 38.6641V36.5913C58.9351 36.1128 58.9058 35.6929 58.8472 35.3315C58.7935 34.9653 58.7129 34.6528 58.6055 34.394C58.498 34.1353 58.3613 33.9253 58.1953 33.7642C58.0342 33.603 57.8462 33.4858 57.6313 33.4126C57.4214 33.3345 57.1846 33.2954 56.9209 33.2954C56.5986 33.2954 56.313 33.3564 56.064 33.4785C55.8149 33.5957 55.605 33.7837 55.4341 34.0425C55.2681 34.3013 55.1411 34.6406 55.0532 35.0605C54.9653 35.4805 54.9214 35.9907 54.9214 36.5913V38.6641C54.9214 39.1426 54.9482 39.5649 55.002 39.9312C55.0605 40.2974 55.146 40.6147 55.2583 40.8833C55.3706 41.147 55.5073 41.3643 55.6685 41.5352C55.8296 41.7061 56.0151 41.833 56.2251 41.916C56.4399 41.9941 56.6768 42.0332 56.9355 42.0332C57.2676 42.0332 57.5581 41.9697 57.8071 41.8428C58.0562 41.7158 58.2637 41.5181 58.4297 41.2495C58.6006 40.9761 58.7275 40.627 58.8105 40.2021C58.8936 39.7725 58.9351 39.2598 58.9351 38.6641ZM69.3349 36.8184V38.4443C69.3349 39.3184 69.2567 40.0557 69.1005 40.6562C68.9442 41.2568 68.7196 41.7402 68.4267 42.1064C68.1337 42.4727 67.7797 42.7388 67.3646 42.9048C66.9545 43.0659 66.4906 43.1465 65.973 43.1465C65.5629 43.1465 65.1845 43.0952 64.8378 42.9927C64.4911 42.8901 64.1786 42.7266 63.9003 42.502C63.6269 42.2725 63.3925 41.9746 63.1972 41.6084C63.0019 41.2422 62.8529 40.7979 62.7504 40.2754C62.6479 39.7529 62.5966 39.1426 62.5966 38.4443V36.8184C62.5966 35.9443 62.6747 35.2119 62.831 34.6211C62.9921 34.0303 63.2191 33.5566 63.5121 33.2002C63.8051 32.8389 64.1566 32.5801 64.5668 32.4238C64.9818 32.2676 65.4457 32.1895 65.9584 32.1895C66.3734 32.1895 66.7543 32.2407 67.101 32.3433C67.4525 32.4409 67.765 32.5996 68.0385 32.8193C68.3119 33.0342 68.5438 33.3223 68.7343 33.6836C68.9296 34.04 69.0785 34.4771 69.1811 34.9946C69.2836 35.5122 69.3349 36.1201 69.3349 36.8184ZM67.9726 38.6641V36.5913C67.9726 36.1128 67.9433 35.6929 67.8847 35.3315C67.831 34.9653 67.7504 34.6528 67.643 34.394C67.5355 34.1353 67.3988 33.9253 67.2328 33.7642C67.0717 33.603 66.8837 33.4858 66.6688 33.4126C66.4589 33.3345 66.2221 33.2954 65.9584 33.2954C65.6361 33.2954 65.3505 33.3564 65.1015 33.4785C64.8524 33.5957 64.6425 33.7837 64.4716 34.0425C64.3056 34.3013 64.1786 34.6406 64.0907 35.0605C64.0028 35.4805 63.9589 35.9907 63.9589 36.5913V38.6641C63.9589 39.1426 63.9857 39.5649 64.0395 39.9312C64.098 40.2974 64.1835 40.6147 64.2958 40.8833C64.4081 41.147 64.5448 41.3643 64.706 41.5352C64.8671 41.7061 65.0526 41.833 65.2626 41.916C65.4774 41.9941 65.7143 42.0332 65.973 42.0332C66.3051 42.0332 66.5956 41.9697 66.8446 41.8428C67.0937 41.7158 67.3012 41.5181 67.4672 41.2495C67.6381 40.9761 67.765 40.627 67.848 40.2021C67.9311 39.7725 67.9726 39.2598 67.9726 38.6641Z" fill="url(#paint1_linear_29_224)"/>
<defs>
<linearGradient id="paint0_linear_29_224" x1="2.55324" y1="60.2926" x2="38.9967" y2="51.23" gradientUnits="userSpaceOnUse">
<stop stop-color="#FF006E"/>
<stop offset="1" stop-color="#FFBE0B"/>
</linearGradient>
<linearGradient id="paint1_linear_29_224" x1="24.5321" y1="69.2926" x2="102.125" y2="-2.74296" gradientUnits="userSpaceOnUse">
<stop stop-color="#FF006E"/>
<stop offset="1" stop-color="#FFBE0B"/>
</linearGradient>
</defs>
</svg>
