<svg width="86" height="59" viewBox="0 0 86 59" fill="none" xmlns="http://www.w3.org/2000/svg">
<path d="M8.69629 13.3457V17.0688H6.86523V13.3457H8.69629ZM8.47656 33.2798V36.5391H6.65771V33.2798H8.47656ZM10.918 29.4224C10.918 28.9341 10.8081 28.4946 10.5884 28.104C10.3687 27.7134 10.0065 27.3553 9.50195 27.0298C8.9974 26.7043 8.32194 26.4032 7.47559 26.1265C6.4502 25.8091 5.56315 25.4225 4.81445 24.9668C4.07389 24.5111 3.50016 23.9455 3.09326 23.27C2.6945 22.5946 2.49512 21.7767 2.49512 20.8164C2.49512 19.8154 2.71077 18.9528 3.14209 18.2285C3.5734 17.5042 4.18376 16.9468 4.97314 16.5562C5.76253 16.1655 6.69027 15.9702 7.75635 15.9702C8.58643 15.9702 9.32699 16.0964 9.97803 16.3486C10.6291 16.5928 11.1784 16.959 11.626 17.4473C12.0817 17.9355 12.4276 18.5337 12.6636 19.2417C12.9077 19.9497 13.0298 20.7676 13.0298 21.6953H10.7837C10.7837 21.1501 10.7186 20.6496 10.5884 20.1938C10.4582 19.7381 10.2629 19.3434 10.0024 19.0098C9.74202 18.668 9.42464 18.4076 9.05029 18.2285C8.67594 18.0413 8.24463 17.9478 7.75635 17.9478C7.07275 17.9478 6.50716 18.0658 6.05957 18.3018C5.62012 18.5378 5.2946 18.8714 5.08301 19.3027C4.87142 19.7259 4.76562 20.2183 4.76562 20.7798C4.76562 21.3006 4.87142 21.7563 5.08301 22.147C5.2946 22.5376 5.65267 22.8916 6.15723 23.209C6.66992 23.5182 7.37386 23.8234 8.26904 24.1245C9.31885 24.4582 10.21 24.8529 10.9424 25.3086C11.6748 25.7562 12.2323 26.3096 12.6147 26.9688C12.9972 27.6198 13.1885 28.4295 13.1885 29.3979C13.1885 30.4478 12.9525 31.3348 12.4805 32.0591C12.0085 32.7752 11.3452 33.3205 10.4907 33.6948C9.63623 34.0692 8.63525 34.2563 7.48779 34.2563C6.79606 34.2563 6.11247 34.1628 5.43701 33.9756C4.76156 33.7884 4.1512 33.4832 3.60596 33.0601C3.06071 32.6287 2.62533 32.0632 2.2998 31.3633C1.97428 30.6553 1.81152 29.7886 1.81152 28.7632H4.08203C4.08203 29.4549 4.17969 30.0286 4.375 30.4844C4.57845 30.932 4.84701 31.29 5.18066 31.5586C5.51432 31.819 5.88053 32.0062 6.2793 32.1201C6.6862 32.2259 7.08903 32.2788 7.48779 32.2788C8.22021 32.2788 8.8387 32.1649 9.34326 31.937C9.85596 31.701 10.2466 31.3674 10.5151 30.936C10.7837 30.5047 10.918 30.0002 10.918 29.4224Z" fill="url(#paint0_linear_29_225)"/>
<path d="M28.1226 41.1445V43H16.4893V41.3765L22.312 34.8945C23.0282 34.097 23.5815 33.4215 23.9722 32.8682C24.3709 32.3066 24.6476 31.8062 24.8022 31.3667C24.965 30.9191 25.0464 30.4634 25.0464 29.9995C25.0464 29.4136 24.9243 28.8846 24.6802 28.4126C24.4442 27.9325 24.0942 27.55 23.6304 27.2651C23.1665 26.9803 22.605 26.8379 21.9458 26.8379C21.1564 26.8379 20.4972 26.9925 19.9683 27.3018C19.4474 27.6029 19.0568 28.026 18.7964 28.5713C18.536 29.1165 18.4058 29.7432 18.4058 30.4512H16.1475C16.1475 29.4502 16.3672 28.5347 16.8066 27.7046C17.2461 26.8745 17.8971 26.2153 18.7598 25.7271C19.6224 25.2306 20.6844 24.9824 21.9458 24.9824C23.0688 24.9824 24.0291 25.1818 24.8267 25.5806C25.6242 25.9712 26.2345 26.5246 26.6577 27.2407C27.089 27.9487 27.3047 28.7788 27.3047 29.731C27.3047 30.2518 27.2152 30.7808 27.0361 31.3179C26.8652 31.8468 26.6252 32.3758 26.3159 32.9048C26.0148 33.4338 25.6608 33.9546 25.2539 34.4673C24.8551 34.98 24.4279 35.4845 23.9722 35.981L19.2114 41.1445H28.1226ZM42.6968 32.6973V35.4072C42.6968 36.8639 42.5666 38.0928 42.3062 39.0938C42.0457 40.0947 41.6714 40.9004 41.1831 41.5107C40.6948 42.1211 40.1048 42.5646 39.4131 42.8413C38.7295 43.1099 37.9564 43.2441 37.0938 43.2441C36.4102 43.2441 35.7795 43.1587 35.2017 42.9878C34.6239 42.8169 34.103 42.5443 33.6392 42.1699C33.1834 41.7874 32.7928 41.291 32.4673 40.6807C32.1418 40.0703 31.8936 39.3298 31.7227 38.459C31.5518 37.5882 31.4663 36.571 31.4663 35.4072V32.6973C31.4663 31.2406 31.5965 30.0199 31.8569 29.0352C32.1255 28.0505 32.5039 27.2611 32.9922 26.667C33.4805 26.0648 34.0664 25.6335 34.75 25.373C35.4417 25.1126 36.2148 24.9824 37.0693 24.9824C37.7611 24.9824 38.3958 25.0679 38.9736 25.2388C39.5596 25.4015 40.0804 25.666 40.5361 26.0322C40.9919 26.3903 41.3784 26.8704 41.6958 27.4727C42.0213 28.0667 42.2695 28.7951 42.4404 29.6577C42.6113 30.5203 42.6968 31.5335 42.6968 32.6973ZM40.4263 35.7734V32.3188C40.4263 31.5213 40.3774 30.8215 40.2798 30.2192C40.1903 29.6089 40.056 29.0881 39.877 28.6567C39.6979 28.2254 39.4701 27.8755 39.1934 27.6069C38.9248 27.3384 38.6115 27.1431 38.2534 27.021C37.9035 26.8908 37.5088 26.8257 37.0693 26.8257C36.5322 26.8257 36.0562 26.9274 35.6411 27.1309C35.2261 27.3262 34.8761 27.6395 34.5913 28.0708C34.3146 28.5021 34.103 29.0677 33.9565 29.7676C33.8101 30.4674 33.7368 31.3179 33.7368 32.3188V35.7734C33.7368 36.571 33.7816 37.2749 33.8711 37.8853C33.9688 38.4956 34.1112 39.0246 34.2983 39.4722C34.4855 39.9116 34.7134 40.2738 34.9819 40.5586C35.2505 40.8434 35.5597 41.055 35.9097 41.1934C36.2677 41.3236 36.6624 41.3887 37.0938 41.3887C37.6471 41.3887 38.1313 41.2829 38.5464 41.0713C38.9614 40.8597 39.3073 40.5301 39.584 40.0825C39.8688 39.6268 40.0804 39.0449 40.2188 38.3369C40.3571 37.6208 40.4263 36.7663 40.4263 35.7734ZM57.7593 32.6973V35.4072C57.7593 36.8639 57.6291 38.0928 57.3687 39.0938C57.1082 40.0947 56.7339 40.9004 56.2456 41.5107C55.7573 42.1211 55.1673 42.5646 54.4756 42.8413C53.792 43.1099 53.0189 43.2441 52.1562 43.2441C51.4727 43.2441 50.842 43.1587 50.2642 42.9878C49.6864 42.8169 49.1655 42.5443 48.7017 42.1699C48.2459 41.7874 47.8553 41.291 47.5298 40.6807C47.2043 40.0703 46.9561 39.3298 46.7852 38.459C46.6143 37.5882 46.5288 36.571 46.5288 35.4072V32.6973C46.5288 31.2406 46.659 30.0199 46.9194 29.0352C47.188 28.0505 47.5664 27.2611 48.0547 26.667C48.543 26.0648 49.1289 25.6335 49.8125 25.373C50.5042 25.1126 51.2773 24.9824 52.1318 24.9824C52.8236 24.9824 53.4583 25.0679 54.0361 25.2388C54.6221 25.4015 55.1429 25.666 55.5986 26.0322C56.0544 26.3903 56.4409 26.8704 56.7583 27.4727C57.0838 28.0667 57.332 28.7951 57.5029 29.6577C57.6738 30.5203 57.7593 31.5335 57.7593 32.6973ZM55.4888 35.7734V32.3188C55.4888 31.5213 55.4399 30.8215 55.3423 30.2192C55.2528 29.6089 55.1185 29.0881 54.9395 28.6567C54.7604 28.2254 54.5326 27.8755 54.2559 27.6069C53.9873 27.3384 53.674 27.1431 53.3159 27.021C52.966 26.8908 52.5713 26.8257 52.1318 26.8257C51.5947 26.8257 51.1187 26.9274 50.7036 27.1309C50.2886 27.3262 49.9386 27.6395 49.6538 28.0708C49.3771 28.5021 49.1655 29.0677 49.019 29.7676C48.8726 30.4674 48.7993 31.3179 48.7993 32.3188V35.7734C48.7993 36.571 48.8441 37.2749 48.9336 37.8853C49.0312 38.4956 49.1737 39.0246 49.3608 39.4722C49.548 39.9116 49.7759 40.2738 50.0444 40.5586C50.313 40.8434 50.6222 41.055 50.9722 41.1934C51.3302 41.3236 51.7249 41.3887 52.1562 41.3887C52.7096 41.3887 53.1938 41.2829 53.6089 41.0713C54.0239 40.8597 54.3698 40.5301 54.6465 40.0825C54.9313 39.6268 55.1429 39.0449 55.2812 38.3369C55.4196 37.6208 55.4888 36.7663 55.4888 35.7734ZM61.9453 41.8037C61.9453 41.4212 62.0633 41.0998 62.2993 40.8394C62.5435 40.5708 62.8934 40.4365 63.3491 40.4365C63.8049 40.4365 64.1507 40.5708 64.3867 40.8394C64.6309 41.0998 64.7529 41.4212 64.7529 41.8037C64.7529 42.1781 64.6309 42.4954 64.3867 42.7559C64.1507 43.0163 63.8049 43.1465 63.3491 43.1465C62.8934 43.1465 62.5435 43.0163 62.2993 42.7559C62.0633 42.4954 61.9453 42.1781 61.9453 41.8037ZM75.3599 36.8184V38.4443C75.3599 39.3184 75.2817 40.0557 75.1255 40.6562C74.9692 41.2568 74.7446 41.7402 74.4517 42.1064C74.1587 42.4727 73.8047 42.7388 73.3896 42.9048C72.9795 43.0659 72.5156 43.1465 71.998 43.1465C71.5879 43.1465 71.2095 43.0952 70.8628 42.9927C70.5161 42.8901 70.2036 42.7266 69.9253 42.502C69.6519 42.2725 69.4175 41.9746 69.2222 41.6084C69.0269 41.2422 68.8779 40.7979 68.7754 40.2754C68.6729 39.7529 68.6216 39.1426 68.6216 38.4443V36.8184C68.6216 35.9443 68.6997 35.2119 68.856 34.6211C69.0171 34.0303 69.2441 33.5566 69.5371 33.2002C69.8301 32.8389 70.1816 32.5801 70.5918 32.4238C71.0068 32.2676 71.4707 32.1895 71.9834 32.1895C72.3984 32.1895 72.7793 32.2407 73.126 32.3433C73.4775 32.4409 73.79 32.5996 74.0635 32.8193C74.3369 33.0342 74.5688 33.3223 74.7593 33.6836C74.9546 34.04 75.1035 34.4771 75.2061 34.9946C75.3086 35.5122 75.3599 36.1201 75.3599 36.8184ZM73.9976 38.6641V36.5913C73.9976 36.1128 73.9683 35.6929 73.9097 35.3315C73.856 34.9653 73.7754 34.6528 73.668 34.394C73.5605 34.1353 73.4238 33.9253 73.2578 33.7642C73.0967 33.603 72.9087 33.4858 72.6938 33.4126C72.4839 33.3345 72.2471 33.2954 71.9834 33.2954C71.6611 33.2954 71.3755 33.3564 71.1265 33.4785C70.8774 33.5957 70.6675 33.7837 70.4966 34.0425C70.3306 34.3013 70.2036 34.6406 70.1157 35.0605C70.0278 35.4805 69.9839 35.9907 69.9839 36.5913V38.6641C69.9839 39.1426 70.0107 39.5649 70.0645 39.9312C70.123 40.2974 70.2085 40.6147 70.3208 40.8833C70.4331 41.147 70.5698 41.3643 70.731 41.5352C70.8921 41.7061 71.0776 41.833 71.2876 41.916C71.5024 41.9941 71.7393 42.0332 71.998 42.0332C72.3301 42.0332 72.6206 41.9697 72.8696 41.8428C73.1187 41.7158 73.3262 41.5181 73.4922 41.2495C73.6631 40.9761 73.79 40.627 73.873 40.2021C73.9561 39.7725 73.9976 39.2598 73.9976 38.6641ZM84.3974 36.8184V38.4443C84.3974 39.3184 84.3192 40.0557 84.163 40.6562C84.0067 41.2568 83.7821 41.7402 83.4892 42.1064C83.1962 42.4727 82.8422 42.7388 82.4271 42.9048C82.017 43.0659 81.5531 43.1465 81.0355 43.1465C80.6254 43.1465 80.247 43.0952 79.9003 42.9927C79.5536 42.8901 79.2411 42.7266 78.9628 42.502C78.6894 42.2725 78.455 41.9746 78.2597 41.6084C78.0644 41.2422 77.9154 40.7979 77.8129 40.2754C77.7104 39.7529 77.6591 39.1426 77.6591 38.4443V36.8184C77.6591 35.9443 77.7372 35.2119 77.8935 34.6211C78.0546 34.0303 78.2816 33.5566 78.5746 33.2002C78.8676 32.8389 79.2191 32.5801 79.6293 32.4238C80.0443 32.2676 80.5082 32.1895 81.0209 32.1895C81.4359 32.1895 81.8168 32.2407 82.1635 32.3433C82.515 32.4409 82.8275 32.5996 83.101 32.8193C83.3744 33.0342 83.6063 33.3223 83.7968 33.6836C83.9921 34.04 84.141 34.4771 84.2436 34.9946C84.3461 35.5122 84.3974 36.1201 84.3974 36.8184ZM83.0351 38.6641V36.5913C83.0351 36.1128 83.0058 35.6929 82.9472 35.3315C82.8935 34.9653 82.8129 34.6528 82.7055 34.394C82.598 34.1353 82.4613 33.9253 82.2953 33.7642C82.1342 33.603 81.9462 33.4858 81.7313 33.4126C81.5214 33.3345 81.2846 33.2954 81.0209 33.2954C80.6986 33.2954 80.413 33.3564 80.164 33.4785C79.9149 33.5957 79.705 33.7837 79.5341 34.0425C79.3681 34.3013 79.2411 34.6406 79.1532 35.0605C79.0653 35.4805 79.0214 35.9907 79.0214 36.5913V38.6641C79.0214 39.1426 79.0482 39.5649 79.102 39.9312C79.1605 40.2974 79.246 40.6147 79.3583 40.8833C79.4706 41.147 79.6073 41.3643 79.7685 41.5352C79.9296 41.7061 80.1151 41.833 80.3251 41.916C80.5399 41.9941 80.7768 42.0332 81.0355 42.0332C81.3676 42.0332 81.6581 41.9697 81.9071 41.8428C82.1562 41.7158 82.3637 41.5181 82.5297 41.2495C82.7006 40.9761 82.8275 40.627 82.9105 40.2021C82.9936 39.7725 83.0351 39.2598 83.0351 38.6641Z" fill="url(#paint1_linear_29_225)"/>
<defs>
<linearGradient id="paint0_linear_29_225" x1="2.55324" y1="60.2926" x2="38.9967" y2="51.23" gradientUnits="userSpaceOnUse">
<stop stop-color="#FF006E"/>
<stop offset="1" stop-color="#FFBE0B"/>
</linearGradient>
<linearGradient id="paint1_linear_29_225" x1="27.0853" y1="69.2926" x2="103.87" y2="-21.0869" gradientUnits="userSpaceOnUse">
<stop stop-color="#FF006E"/>
<stop offset="1" stop-color="#FFBE0B"/>
</linearGradient>
</defs>
</svg>
